<?xml version="1.0" encoding="iso-8859-1"?>
<!-- Generator: Adobe Illustrator 16.0.0, SVG Export Plug-In . SVG Version: 6.00 Build 0)  -->
<!DOCTYPE svg PUBLIC "-//W3C//DTD SVG 1.1//EN" "http://www.w3.org/Graphics/SVG/1.1/DTD/svg11.dtd">
<svg version="1.1" id="Capa_1" xmlns="http://www.w3.org/2000/svg" xmlns:xlink="http://www.w3.org/1999/xlink" x="0px" y="0px"
	 width="44.729px" height="44.729px" viewBox="0 0 44.729 44.729" style="enable-background:new 0 0 44.729 44.729;"
	 xml:space="preserve">
<g>
	<g>
		<path d="M1.732,30.985c1.218-9.961,6.295-13.156,10.841-15.987c4.642-2.892,8.657-5.425,8.174-14.942
			c-2.163,0.157-4.241,0.618-6.191,1.348c0.202,7.553-3.376,9.793-6.848,11.956c-3.667,2.284-7.131,4.442-7.348,12.958
			C0.65,27.939,1.111,29.504,1.732,30.985z"/>
		<path d="M6.65,11.662c3.236-2.017,5.853-3.667,5.912-9.399C6.672,5.15,2.232,10.551,0.643,17.059
			C2.274,14.39,4.541,12.975,6.65,11.662z"/>
		<path d="M7.241,38.823c0.788-10.616,5.446-14.321,9.963-17.908c4.907-3.896,9.544-7.588,9.283-20.54
			C25.27,0.148,24.02,0.021,22.743,0c0.518,10.661-4.367,13.739-9.113,16.695C8.822,19.69,3.86,22.799,3.478,34.316
			C4.533,35.979,5.798,37.495,7.241,38.823z"/>
		<path d="M31.192,27.151c4.482-3.597,8.71-7.021,8.484-18.957c-1.207-1.471-2.598-2.781-4.136-3.904
			c-0.063,13.04-5.132,17.116-10.045,21.058c-4.624,3.711-8.989,7.222-9.309,18.515c1.844,0.53,3.783,0.831,5.787,0.867
			C22.5,34.157,26.911,30.588,31.192,27.151z"/>
		<path d="M38.704,31.816c-3.21,1.956-5.994,3.671-6.318,10.549c6.155-3.093,10.692-8.941,11.984-15.92
			C42.928,29.239,40.741,30.575,38.704,31.816z"/>
		<path d="M37.664,30.109c3.438-2.096,6.687-4.074,6.291-13.271l0.103-0.004c-0.528-2.074-1.352-4.031-2.416-5.829
			c-0.473,10.67-4.895,14.254-9.196,17.706c-4.093,3.282-7.954,6.409-8.465,15.963c2.229-0.158,4.368-0.645,6.372-1.41
			C30.475,34.49,34.293,32.163,37.664,30.109z"/>
		<path d="M24.245,23.788c4.915-3.943,9.559-7.678,9.287-20.806c-1.568-0.906-3.256-1.627-5.033-2.134
			c0.143,13.54-5.037,17.652-10.051,21.633c-4.566,3.625-8.875,7.069-9.286,17.922c1.547,1.137,3.245,2.076,5.059,2.789
			C14.715,31.467,19.553,27.553,24.245,23.788z"/>
	</g>
</g>
<g>
</g>
<g>
</g>
<g>
</g>
<g>
</g>
<g>
</g>
<g>
</g>
<g>
</g>
<g>
</g>
<g>
</g>
<g>
</g>
<g>
</g>
<g>
</g>
<g>
</g>
<g>
</g>
<g>
</g>
</svg>
